# xmcd
#
# Track frame offsets:
#   151
#   18821
#   35387
#   54968
#   72888
#   89676
#   103048
#   121632
#   140024
#   159891
#   176941
#   194841
#   216842
#   236742
#   258243
#   278443
#   293744
#   312723
#
# Disc length: 4434 seconds
#
# Revision: 0
# Processed by: cddbd v1.5.1PL0 Copyright (c) Steve Scherf et al.
# Submitted via: uFREEDB 1.6.0
#
DISCID=06115012
DTITLE=Robert Cray - Persuader Of The Dark
DYEAR=1986
DGENRE=Blues
TTITLE0=1.1 Smoking Gun
TTITLE1=1.2 I Guess I Showed Her
TTITLE2=1.3 Right Next Door
TTITLE3=1.4 Nothing But A Woman
TTITLE4=1.5 Still Around
TTITLE5=1.6 More Than  Can Stand
TTITLE6=1.7 Foul Play
TTITLE7=1.8 Fantasized
TTITLE8=1.9 New Blood
TTITLE9=2.1 Don't Be Afraid Of The Dark
TTITLE10=2.2 Don't You Even Care?
TTITLE11=2.3 Your Secret's Safe With Me
TTITLE12=2.4 I Can't Go Home
TTITLE13=2.5 Night Patrol
TTITLE14=2.6 Acting This Way
TTITLE15=2.7 Gotta Change The Rules
TTITLE16=2.8 Across The Line
TTITLE17=2.9 Laugh Out Loud
EXTD=Homemade compilation of String Persuader 1986 and Don't  Be Afraid Of The Dark 1988
EXTT0=
EXTT1=
EXTT2=
EXTT3=
EXTT4=
EXTT5=
EXTT6=
EXTT7=
EXTT8=
EXTT9=
EXTT10=
EXTT11=
EXTT12=
EXTT13=
EXTT14=
EXTT15=
EXTT16=
EXTT17=
PLAYORDER=
